<svg xmlns="http://www.w3.org/2000/svg" viewBox="0 0 130.66 143.05" width="130.66" height="143.05"><defs><style>.cls-1{fill:#fff;}</style></defs><title>Asset 5</title><g id="Layer_2" data-name="Layer 2"><g id="Layer_1-2" data-name="Layer 1"><path class="cls-1" d="M65.33,3.16,127.5,23.83s6.33,89.33-62.17,116c-68.5-26.67-62.17-116-62.17-116L65.33,3.16m0-3.16-.95.31L2.22,21l-1.9.63-.14,2a161.93,161.93,0,0,0,5.49,49c4.15,15.27,10.43,28.6,18.65,39.63a89.61,89.61,0,0,0,39.93,30.38l1.09.42,1.09-.42a89.61,89.61,0,0,0,39.93-30.38c8.22-11,14.5-24.36,18.65-39.63a161.93,161.93,0,0,0,5.49-49l-.14-2-1.9-.63L66.28.31,65.33,0Z"/><path class="cls-1" d="M27.22,63.24a6,6,0,0,1,5.15-2.5c3.67,0,4.67-.08,4.67-.08l1.17-2.42H28.46s-7.25,1.33-9.92,7.5S13.88,80,22.29,79.91s8.42,0,8.42,0l1.42-3.33h-4.9s-5.51,0-3.1-5.83S27.22,63.24,27.22,63.24Z"/><path class="cls-1" d="M62.88,62.41c-.08-3.5-2.83-4.17-5.83-4.17H42.13L35.38,79.91h7.08l6-18.83h3.67s3.08.33,2.83,2.5-6.75,5-6.75,5L51,79.49h8.42l-3-9.75S63,65.91,62.88,62.41Z"/><polygon class="cls-1" points="62.04 79.5 69.88 79.5 75.88 58.24 68.04 58.24 62.04 79.5"/><polygon class="cls-1" points="97.9 61.19 99.04 58.24 92.54 58.24 84.71 58.24 78.6 58.24 78.46 61.19 83.88 61.19 78.71 79.5 86.54 79.5 91.71 61.19 97.9 61.19"/><path class="cls-1" d="M114.38,61.19c2.58.05,4.83,0,4.83,0l1-2.95H109.38s-6.83,0-9.17,5.17S102,70,105.54,70.16s4.08,2.42,2.67,4.25-3.5,2.17-6.08,2.17H96.21l-1,2.92h13.33s6.25-.92,8.25-6.33-4.49-5.44-6.67-5.67c-1.09-.11-4.67-.83-2.42-3.67S111.79,61.14,114.38,61.19Z"/></g></g></svg>